<?xml version="1.0" encoding="UTF-8" standalone="no"?>
<!-- Created with Inkscape (http://www.inkscape.org/) -->

<svg
   width="360.573"
   height="482.53201"
   viewBox="0 0 95.401607 127.66993"
   version="1.1"
   id="svg1"
   xml:space="preserve"
   xmlns="http://www.w3.org/2000/svg"
   xmlns:svg="http://www.w3.org/2000/svg"><defs
     id="defs1" /><g
     id="layer1"
     transform="translate(74.82198,-92.785502)"><path
       d="m -11.154271,193.49067 h 23.289932 v 5.60627 H 3.5400415 v 21.06166 h -6.0876491 v -21.06166 h -8.5955914 v -5.60627 z"
       id="path1067"
       style="fill:#0072bc;fill-opacity:1;stroke-width:1.10205" /><path
       d="m -44.442933,193.4797 h 5.999249 v 19.94049 c 0,5.93603 -2.938858,7.03525 -5.424732,7.03525 -2.673702,0 -4.076843,-1.24217 -5.225872,-3.04488 -1.602011,-2.50635 -9.148031,-17.34629 -9.258514,-17.57712 -0.12153,-0.22 -0.287259,-0.38432 -0.464032,-0.28525 -0.143645,0.0847 -0.165731,0.36256 -0.143645,0.65987 0.01107,0.3517 0.08841,2.12156 0.08841,3.31972 v 16.63179 h -5.999255 v -19.94049 c 0,-5.93595 2.93886,-7.03528 5.424736,-7.03528 2.673703,0 4.076844,1.24219 5.225868,3.04503 0.994352,1.54986 9.125942,17.32426 9.258522,17.57708 0.121528,0.22 0.287256,0.38437 0.464027,0.28526 0.154688,-0.0848 0.16573,-0.3626 0.143644,-0.6599 -0.01107,-0.3517 -0.08839,-2.12153 -0.08839,-3.31973 z"
       id="path1065"
       style="fill:#0072bc;fill-opacity:1;stroke-width:1.10205" /><path
       d="m -36.377628,199.09694 h 8.595591 v 21.06166 h 6.08765 v -21.06166 h 8.59562 v -5.60627 h -23.289934 v 5.60627 z"
       id="path1063"
       style="fill:#0072bc;fill-opacity:1;stroke-width:1.10205" /><path
       d="M 59.253438,0 C 54.948265,0 50.694043,0.93037168 47.700801,2.1666187 44.707558,0.94311729 40.453337,0 36.148163,0 17.157006,0 6.8506031e-7,17.970177 6.8506031e-7,42.631381 6.8506031e-7,69.522921 21.958928,90.3097 47.700801,90.3097 73.442673,90.3097 95.4016,69.522921 95.4016,42.631381 95.414177,17.970177 78.257332,0 59.253438,0 Z M 47.700801,14.643786 c 3.655574,2.179359 8.49571,8.48804 8.49571,15.612384 0,5.225371 -3.439042,9.329202 -8.49571,9.329202 -5.056669,0 -8.495711,-4.116576 -8.495711,-9.329202 0,-7.124344 4.840136,-13.433025 8.495711,-15.612384 z m 0,63.927949 c -19.691704,0 -35.982578,-15.841795 -35.982578,-36.16976 0,-18.556442 13.386793,-31.237524 23.894978,-30.75322 -4.980245,4.970475 -7.998957,12.196778 -7.998957,19.206424 0,12.04384 9.552896,20.49365 20.086557,20.49365 10.53366,0 20.086556,-8.44981 20.086556,-20.49365 0,-7.009646 -3.018712,-14.235949 -7.998957,-19.206424 10.520922,-0.471578 23.894978,12.209523 23.894978,30.75322 0,20.327965 -16.290869,36.16976 -35.982577,36.16976 z"
       id="path6"
       style="stroke-width:1.2741;fill:#0072bc;fill-opacity:1"
       transform="translate(-74.82198,92.785502)" /></g></svg>
