<?xml version="1.0" encoding="UTF-8"?> <svg xmlns="http://www.w3.org/2000/svg" width="113" height="24" viewBox="0 0 113 24" fill="none"><path d="M9.424 0.279999C14.8 0.279999 18.096 3.096 18.096 7.64C18.096 12.216 14.8 15.064 9.424 15.064H5.104V23H0.432V0.279999H9.424ZM5.104 11.096H9.168C11.824 11.096 13.296 9.912 13.296 7.64C13.296 5.4 11.824 4.248 9.168 4.248H5.104V11.096ZM18.9047 11.256C19.5767 7.672 22.3287 5.656 26.7128 5.656C31.7688 5.656 34.3927 8.184 34.3927 13.016V18.488C34.3927 19.544 34.8407 19.8 35.4808 19.8H36.0888V23L35.1928 23.032C34.0088 23.064 30.9047 23.288 30.4888 20.44C29.6888 22.136 27.7688 23.384 24.7287 23.384C21.3047 23.384 18.6487 21.528 18.6487 18.552C18.6487 15.352 21.0167 14.2 25.0807 13.368L29.7528 12.44C29.7528 9.944 28.7607 8.76 26.6807 8.76C25.0167 8.76 23.9288 9.688 23.5767 11.512L18.9047 11.256ZM23.3847 18.392C23.3847 19.48 24.2807 20.312 26.1047 20.312C28.2487 20.312 29.8488 18.712 29.8488 15.576V15.384L26.9047 15.928C24.8888 16.312 23.3847 16.6 23.3847 18.392ZM37.985 0.279999H42.593V18.232C42.593 19.064 43.041 19.512 43.841 19.512H45.089V23H42.561C39.809 23 37.985 21.336 37.985 18.424V0.279999ZM46.6588 6.04H50.7868L50.9148 8.728C51.7788 6.776 53.4428 5.656 55.6508 5.656C58.0508 5.656 59.7468 6.936 60.4828 9.144C61.3468 6.84 63.1068 5.656 65.4748 5.656C68.8988 5.656 71.1068 7.896 71.1068 12.088V23H66.4988V13.592C66.4988 10.776 65.6668 9.336 64.0028 9.336C61.9868 9.336 60.9308 10.808 60.9308 13.592V23H56.8348V13.592C56.8348 10.776 56.0028 9.336 54.3388 9.336C52.3228 9.336 51.2668 10.84 51.2668 13.592V23H46.6588V6.04ZM71.7117 0.279999H76.4797L82.5597 17.752L88.6077 0.279999H93.3757L85.1837 23H79.9037L71.7117 0.279999ZM94.5258 23V0.279999H102.782C108.862 0.279999 111.902 2.264 111.902 6.584C111.902 9.24 110.238 10.936 107.358 11.256C110.91 11.576 112.862 13.464 112.862 16.568C112.862 20.76 109.822 23 104.062 23H94.5258ZM99.1978 19.16H104.158C106.558 19.16 108.126 18.168 108.126 16.216C108.126 14.2 106.59 13.176 104.158 13.176H99.1978V19.16ZM99.1978 9.72H103.134C105.63 9.72 107.166 8.76 107.166 6.936C107.166 5.016 105.694 4.12 103.134 4.12H99.1978V9.72Z" fill="#E03000"></path></svg> 